<?xml version="1.0" standalone="no"?>
<!DOCTYPE svg PUBLIC "-//W3C//DTD SVG 20010904//EN"
 "http://www.w3.org/TR/2001/REC-SVG-20010904/DTD/svg10.dtd">
<svg version="1.0" xmlns="http://www.w3.org/2000/svg"
 width="319.000000pt" height="273.000000pt" viewBox="0 0 319.000000 273.000000"
 preserveAspectRatio="xMidYMid meet">

<g transform="translate(0.000000,273.000000) scale(0.100000,-0.100000)"
fill="#000000" stroke="none">
<path d="M0 1365 l0 -1365 1595 0 1595 0 0 1365 0 1365 -1595 0 -1595 0 0
-1365z m1568 1228 c-10 -2 -28 -2 -40 0 -13 2 -5 4 17 4 22 1 32 -1 23 -4z
m150 0 c-10 -2 -28 -2 -40 0 -13 2 -5 4 17 4 22 1 32 -1 23 -4z m-878 -267 c0
-2 -8 -10 -17 -17 -16 -13 -17 -12 -4 4 13 16 21 21 21 13z m1581 -13 c13 -16
12 -17 -3 -4 -10 7 -18 15 -18 17 0 8 8 3 21 -13z m-791 -18 c0 -14 -4 -25
-10 -25 -5 0 -10 11 -10 25 0 14 5 25 10 25 6 0 10 -11 10 -25z m-860 -28 c0
-2 -17 -19 -37 -38 l-38 -34 34 38 c33 34 41 42 41 34z m782 -13 c-12 -8 -22
-26 -22 -40 0 -13 -4 -24 -10 -24 -5 0 -10 11 -10 24 0 23 32 56 54 56 6 0 0
-7 -12 -16z m156 0 c24 -17 27 -54 5 -61 -7 -3 -9 3 -6 16 7 29 -15 53 -41 46
-17 -5 -18 -4 -6 4 20 14 22 14 48 -5z m807 -24 c21 -22 37 -40 34 -40 -3 0
-23 18 -44 40 -21 22 -37 40 -34 40 3 0 23 -18 44 -40z m-883 -22 c-2 -15 -8
-28 -12 -28 -4 0 -10 13 -12 28 -3 20 0 28 12 28 12 0 15 -8 12 -28z m-282
-56 c-19 -10 -37 -16 -40 -14 -9 7 34 32 54 32 16 0 12 -5 -14 -18z m65 -2
c-10 -11 -20 -18 -23 -16 -5 6 21 35 32 36 5 0 1 -9 -9 -20z m181 5 c-11 -8
-25 -15 -30 -15 -6 1 0 7 14 15 32 19 40 18 16 0z m83 -11 c14 -12 -19 -1 -35
12 -18 14 -18 14 6 3 14 -6 27 -13 29 -15z m162 4 c18 -20 23 -28 16 -28 -2 0
-14 11 -27 25 -13 14 -20 25 -15 25 4 0 16 -10 26 -22z m75 8 c29 -22 13 -24
-26 -4 -26 13 -30 18 -14 18 11 0 29 -6 40 -14z m-1256 -10 c0 -2 -8 -10 -17
-17 -16 -13 -17 -12 -4 4 13 16 21 21 21 13z m1941 -13 c13 -16 12 -17 -3 -4
-17 13 -22 21 -14 21 2 0 10 -8 17 -17z m-1301 -32 c0 -5 -10 -13 -22 -16 -82
-24 -245 -152 -329 -258 -21 -26 -40 -43 -43 -39 -8 13 91 130 150 178 67 55
99 77 169 113 65 33 75 36 75 22z m273 2 c-7 -2 -21 -2 -30 0 -10 3 -4 5 12 5
17 0 24 -2 18 -5z m60 0 c-7 -2 -19 -2 -25 0 -7 3 -2 5 12 5 14 0 19 -2 13 -5z
m75 0 c-10 -2 -26 -2 -35 0 -10 3 -2 5 17 5 19 0 27 -2 18 -5z m306 -24 c70
-36 102 -57 170 -113 59 -48 158 -165 150 -178 -3 -4 -22 13 -43 39 -62 78
-166 170 -249 218 -42 25 -82 45 -89 45 -7 0 -13 5 -13 10 0 15 7 13 74 -21z
m-521 14 c-7 -2 -19 -2 -25 0 -7 3 -2 5 12 5 14 0 19 -2 13 -5z m280 0 c-7 -2
-19 -2 -25 0 -7 3 -2 5 12 5 14 0 19 -2 13 -5z m-326 -9 c-3 -3 -12 -4 -19 -1
-8 3 -5 6 6 6 11 1 17 -2 13 -5z m483 -34 c8 -5 11 -10 5 -10 -5 0 -17 5 -25
10 -8 5 -10 10 -5 10 6 0 17 -5 25 -10z m-350 -10 c0 -5 -7 -7 -15 -4 -20 8
-19 -3 5 -33 11 -14 17 -29 14 -34 -8 -13 -32 -11 -40 3 -5 8 -2 9 9 5 21 -8
22 6 2 23 -22 18 -19 50 5 50 11 0 20 -4 20 -10z m103 -10 c-3 -11 -9 -23 -14
-26 -5 -3 -9 -10 -9 -16 0 -6 9 -3 20 7 24 21 27 14 4 -9 -34 -34 -47 -5 -18
39 20 30 24 31 17 5z m-188 -34 c0 -25 -3 -42 -7 -40 -5 3 -8 16 -8 29 0 13
-5 27 -10 30 -13 8 -3 25 13 25 7 0 12 -17 12 -44z m333 16 c2 -8 -2 -10 -13
-5 -15 5 -16 3 -6 -15 17 -32 13 -52 -9 -52 -11 0 -20 4 -20 10 0 5 7 7 15 4
18 -7 19 0 4 27 -6 12 -8 27 -5 36 7 16 28 13 34 -5z m-402 -68 c-9 -22 -33
-16 -40 10 -3 13 -9 32 -13 42 -4 11 -3 15 5 11 6 -4 13 -21 17 -37 4 -17 11
-30 17 -30 9 0 8 13 -7 67 -3 10 2 3 10 -16 9 -18 14 -40 11 -47z m-216 48
c-88 -61 -148 -113 -192 -166 -63 -76 -78 -91 -48 -46 37 53 138 152 200 193
30 20 57 37 60 36 3 0 -6 -8 -20 -17z m905 -53 c28 -21 66 -55 85 -75 22 -24
12 -18 -25 16 -33 29 -84 69 -112 88 -29 19 -53 37 -53 40 0 6 46 -24 105 -69z
m-230 41 c-8 -24 10 -27 19 -4 4 9 9 15 11 12 6 -6 -23 -78 -31 -78 -3 0 -2 9
1 20 8 24 -10 27 -19 4 -4 -9 -9 -15 -12 -12 -5 5 26 78 34 78 2 0 0 -9 -3
-20z m-550 0 c3 -5 -1 -10 -9 -10 -19 0 -19 -2 -4 -34 9 -22 14 -24 26 -13 13
10 14 9 10 -3 -2 -8 -12 -16 -20 -18 -18 -3 -43 50 -34 73 6 17 22 20 31 5z
m-65 -77 c0 -7 5 -13 10 -13 6 0 10 -5 10 -12 0 -9 -3 -9 -12 0 -17 17 -33 15
-18 -3 7 -8 9 -15 4 -15 -5 0 -19 16 -31 35 -21 32 -21 35 -5 44 18 11 42 -10
42 -36z m708 15 c-14 -43 -21 -49 -35 -33 -10 11 -8 19 8 39 28 36 40 33 27
-6z m-282 -7 c-3 -5 5 -16 19 -25 13 -9 29 -26 36 -37 7 -14 -3 -8 -25 14 -55
55 -131 62 -199 16 l-32 -21 25 22 c14 13 24 27 23 31 -2 5 33 9 78 9 44 0 78
-4 75 -9z m-179 -7 c-3 -3 -12 -4 -19 -1 -8 3 -5 6 6 6 11 1 17 -2 13 -5z
m226 -1 c-7 -2 -19 -2 -25 0 -7 3 -2 5 12 5 14 0 19 -2 13 -5z m300 -10 c-6
-16 -5 -16 10 -4 29 23 19 -4 -13 -34 -33 -31 -39 -21 -15 25 17 33 28 40 18
13z m-824 -58 c0 -5 -11 4 -24 20 -14 17 -25 35 -25 40 0 6 11 -3 25 -20 13
-16 24 -34 24 -40z m258 59 c-3 -3 -12 -4 -19 -1 -8 3 -5 6 6 6 11 1 17 -2 13
-5z m310 0 c-3 -3 -12 -4 -19 -1 -8 3 -5 6 6 6 11 1 17 -2 13 -5z m-99 -36
c16 -16 15 -40 -1 -62 -12 -17 -16 -17 -50 -3 -36 15 -36 15 -24 -5 9 -16 9
-22 0 -25 -18 -6 -16 -48 2 -63 12 -10 18 -10 30 0 13 11 14 10 9 -4 -3 -9 -1
-16 5 -16 6 0 11 -7 11 -16 0 -13 -7 -15 -32 -10 -44 9 -58 23 -58 62 0 36
-13 44 -28 17 -8 -13 -11 -8 -17 24 -9 54 7 77 64 95 60 20 74 21 89 6z m441
-12 c9 -11 8 -14 -6 -12 -10 0 -17 -5 -15 -11 1 -7 -5 -13 -14 -13 -11 0 -14
-6 -9 -22 7 -22 6 -22 -11 -6 -17 17 -17 19 11 48 34 35 30 34 44 16z m-977
-19 c22 -18 24 -24 13 -34 -11 -10 -18 -7 -34 16 -34 47 -24 55 21 18z m168
10 c0 -1 -27 -22 -60 -46 -33 -24 -62 -52 -65 -62 -4 -11 -13 -19 -22 -19 -14
0 -13 3 3 21 30 33 144 117 144 106z m86 -14 c0 -11 6 -17 17 -17 19 2 23 -11
6 -22 -16 -9 -43 21 -36 40 8 21 15 20 13 -1z m438 -21 c-13 -20 -35 -23 -41
-5 -3 7 4 9 18 6 19 -5 21 -3 16 17 -4 17 -3 20 6 11 8 -8 9 -16 1 -29z m187
-43 c35 -31 48 -48 37 -49 -9 0 -19 8 -23 19 -3 10 -32 38 -65 62 -33 24 -60
45 -60 47 0 9 64 -36 111 -79z m239 21 c30 -43 18 -37 -16 7 -15 20 -23 33
-16 29 6 -3 21 -20 32 -36z m-1385 -5 c44 -43 25 -129 -35 -160 -32 -17 -66
-21 -41 -6 11 7 9 10 -10 14 -18 3 -15 5 11 6 48 1 78 25 86 67 5 26 2 40 -11
54 -20 22 -65 26 -83 8 -19 -19 -40 6 -22 27 20 24 77 19 105 -10z m240 -34
c-3 -2 -12 2 -21 10 -16 13 -17 12 -12 -8 l6 -22 -29 21 c-16 12 -29 26 -29
31 0 6 9 2 20 -8 16 -14 20 -15 20 -4 0 8 -6 21 -12 29 -7 7 4 0 24 -16 20
-15 35 -30 33 -33z m1068 26 c-5 -8 -8 -7 -11 1 -7 21 -22 13 -22 -12 0 -32
-18 -43 -37 -23 -10 10 -11 17 -4 21 6 4 11 0 11 -9 0 -9 5 -13 10 -10 6 3 10
14 10 24 0 26 21 43 37 30 7 -6 10 -16 6 -22z m267 18 c18 -21 -3 -46 -22 -27
-18 18 -63 14 -83 -8 -13 -14 -16 -28 -11 -54 8 -42 38 -66 86 -67 26 -1 29
-3 11 -6 -19 -4 -21 -7 -10 -14 25 -15 -9 -11 -41 6 -60 31 -79 117 -35 160
28 29 85 34 105 10z m-1122 -23 c3 -16 -2 -22 -15 -22 -15 0 -16 2 -3 10 13 9
12 13 -5 26 l-20 16 20 -4 c12 -2 21 -13 23 -26z m153 -78 c10 -12 9 -13 -3
-9 -9 3 -20 17 -26 31 -15 31 -61 34 -69 4 -3 -11 -9 -20 -13 -20 -15 0 -19
28 -6 46 10 13 22 16 50 11 34 -5 36 -4 37 21 1 16 5 7 9 -21 5 -27 14 -55 21
-63z m326 63 c39 7 67 -15 56 -43 -7 -20 -20 -17 -26 6 -8 30 -54 27 -69 -4
-6 -14 -16 -27 -23 -30 -10 -4 -10 2 1 22 8 15 15 43 15 62 2 29 3 31 6 8 4
-24 7 -26 40 -21z m107 28 c-16 -13 -17 -16 -4 -25 13 -8 13 -10 -2 -10 -11 0
-18 7 -18 18 0 23 8 32 29 32 11 0 10 -3 -5 -15z m-1070 -97 c-9 -18 -19 -28
-21 -21 -2 6 4 27 13 45 9 18 19 28 21 21 2 -6 -4 -27 -13 -45z m1541 21 c9
-17 14 -36 12 -42 -4 -12 -37 44 -37 63 0 18 9 11 25 -21z m-1710 11 c3 -6 -1
-17 -9 -25 -12 -13 -13 -21 -4 -40 10 -22 37 -36 93 -48 11 -3 -2 -3 -30 0
-86 7 -133 49 -114 101 9 23 52 31 64 12z m1934 -12 c19 -52 -28 -94 -114
-101 -27 -3 -41 -3 -30 0 56 12 83 26 93 48 9 19 8 27 -4 40 -20 19 -10 35 22
35 16 0 27 -7 33 -22z m-1482 -30 c-43 -59 -43 -58 19 -58 55 0 56 1 41 18
-10 10 -17 22 -17 26 0 5 8 -2 18 -14 15 -18 24 -22 46 -16 25 6 28 10 22 36
-4 23 -2 30 10 30 21 0 29 -27 16 -56 l-12 -24 64 0 c50 0 69 5 92 22 l29 22
-19 -22 -19 -22 63 0 c54 0 61 2 50 15 -11 13 -9 14 15 1 18 -10 64 -14 142
-15 l116 -1 -19 22 -19 22 29 -22 c23 -17 42 -22 92 -22 l64 0 -12 24 c-13 29
-5 56 16 56 12 0 14 -7 10 -30 -6 -26 -3 -30 22 -36 22 -6 31 -2 46 16 10 12
18 19 18 14 0 -4 -7 -16 -17 -26 -15 -17 -14 -18 41 -18 62 0 62 -1 17 60 -14
19 -18 29 -8 21 9 -7 26 -28 38 -47 l21 -34 103 0 c59 0 107 -4 110 -10 4 -7
-247 -10 -745 -10 -498 0 -749 3 -745 10 3 6 51 10 109 10 l102 0 32 45 c17
25 34 45 37 45 3 0 -5 -15 -18 -32z m930 10 c-3 -8 -6 -5 -6 6 -1 11 2 17 5
13 3 -3 4 -12 1 -19z m-1297 3 c0 -5 -6 -11 -12 -14 -10 -3 -10 -8 1 -23 14
-18 14 -18 -3 -2 -11 9 -16 23 -13 32 7 17 27 22 27 7z m260 -1 c0 -5 -4 -10
-10 -10 -5 0 -10 5 -10 10 0 6 5 10 10 10 6 0 10 -4 10 -10z m1200 0 c0 -5 -4
-10 -10 -10 -5 0 -10 5 -10 10 0 6 5 10 10 10 6 0 10 -4 10 -10z m267 -6 c3
-9 -2 -23 -13 -32 -17 -16 -17 -16 -3 2 11 15 11 20 2 23 -16 6 -17 23 -3 23
6 0 13 -7 17 -16z m-1867 -74 c11 -7 2 -10 -33 -10 -83 0 -126 -37 -127 -107
0 -36 -4 -44 -34 -62 -35 -22 -66 -73 -66 -111 0 -38 32 -92 67 -112 30 -18
33 -25 33 -65 0 -37 5 -50 31 -74 26 -25 39 -29 86 -29 33 0 52 -4 48 -10 -3
-5 -25 -10 -49 -10 -73 0 -136 56 -136 123 0 19 -12 39 -40 66 -22 21 -42 36
-45 33 -3 -3 -5 28 -5 68 l0 74 43 41 c35 32 45 50 50 84 3 23 14 52 24 63 36
41 118 61 153 38z m2083 -4 c46 -19 68 -48 74 -97 5 -32 15 -52 44 -79 l38
-36 4 36 c2 19 4 -16 5 -79 1 -63 0 -112 -3 -109 -3 3 -23 -12 -45 -33 -28
-27 -40 -47 -40 -66 0 -67 -63 -123 -136 -123 -24 0 -46 5 -49 10 -4 6 15 10
50 10 49 0 60 4 86 29 23 24 29 38 29 74 0 40 3 47 33 65 35 20 67 74 67 112
0 38 -31 89 -66 111 -30 18 -34 26 -34 62 -1 70 -44 107 -127 107 -35 0 -44 3
-33 10 21 14 65 12 103 -4z m-2154 -49 c-2 -1 -15 -11 -29 -22 l-25 -20 19 23
c11 12 24 22 29 22 6 0 8 -1 6 -3z m2157 -19 l19 -23 -25 20 c-14 11 -27 21
-29 22 -2 2 0 3 6 3 5 0 18 -10 29 -22z m-2209 -105 c-2 -16 -4 -3 -4 27 0 30
2 43 4 28 2 -16 2 -40 0 -55z m2230 0 c-2 -16 -4 -3 -4 27 0 30 2 43 4 28 2
-16 2 -40 0 -55z m-1879 40 c-2 -14 -16 -19 -53 -23 l-50 -5 0 -50 0 -50 38
-3 c28 -2 37 -8 37 -22 0 -14 -9 -20 -37 -22 l-38 -3 0 -50 0 -50 50 -5 c37
-4 51 -9 53 -22 3 -16 -6 -18 -72 -18 l-76 0 0 170 0 170 76 0 c66 0 75 -2 72
-17z m201 3 c8 -9 11 -63 9 -167 l-3 -154 -77 -3 -78 -3 0 171 0 170 69 0 c46
0 72 -5 80 -14z m91 -136 l0 -150 35 0 35 0 0 150 0 150 25 0 25 0 0 -158 c0
-110 -4 -162 -12 -170 -12 -12 -104 -17 -132 -6 -14 5 -16 30 -16 170 0 157 1
164 20 164 19 0 20 -7 20 -150z m425 35 c22 -60 44 -119 49 -130 6 -16 18 8
56 110 39 105 52 131 69 133 21 3 21 0 21 -167 l0 -171 -25 0 c-24 0 -24 2
-27 88 l-3 87 -30 -87 c-27 -80 -32 -88 -55 -88 -22 0 -28 7 -37 43 -7 23 -21
62 -32 87 l-20 45 0 -87 c-1 -87 -1 -88 -26 -88 l-25 0 0 171 c0 170 0 170 22
167 18 -2 29 -23 63 -113z m374 -31 c-32 -80 -59 -147 -59 -150 0 -2 25 -4 55
-4 30 0 55 -2 55 -4 0 -2 3 -11 6 -20 5 -14 -6 -16 -89 -16 l-96 0 60 145 c32
79 59 147 59 150 0 3 -22 5 -50 5 -27 0 -50 2 -50 4 0 2 -3 11 -6 20 -5 14 6
16 84 16 l91 0 -60 -146z m161 -24 l0 -170 -25 0 -25 0 0 170 0 170 25 0 25 0
0 -170z m230 163 c0 -17 -16 -31 -39 -34 l-23 -4 1 -147 2 -148 -26 0 -25 0 0
150 0 150 -25 0 c-14 0 -29 8 -35 20 -10 19 -8 20 80 20 49 0 90 -3 90 -7z
m188 -5 c19 -19 17 -302 -2 -317 -9 -7 -40 -11 -78 -9 l-63 3 -3 154 c-2 104
1 158 9 167 14 18 120 19 137 2z m-2161 -65 c-3 -10 -5 -2 -5 17 0 19 2 27 5
18 2 -10 2 -26 0 -35z m112 -5 c-2 -2 -17 -14 -34 -28 l-30 -25 24 28 c14 15
29 27 34 27 6 0 8 -1 6 -2z m2322 -25 l24 -28 -30 25 c-16 14 -32 26 -34 28
-2 1 0 2 6 2 5 0 20 -12 34 -27z m-2384 -80 c-3 -10 -5 -2 -5 17 0 19 2 27 5
18 2 -10 2 -26 0 -35z m2410 0 c-3 -10 -5 -2 -5 17 0 19 2 27 5 18 2 -10 2
-26 0 -35z m-2307 11 c0 -16 -16 -19 -25 -4 -8 13 4 32 16 25 5 -4 9 -13 9
-21z m2222 -6 c-15 -15 -26 -4 -18 18 5 13 9 15 18 6 9 -9 9 -15 0 -24z
m-2267 -76 c-3 -3 -11 0 -18 7 -9 10 -8 11 6 5 10 -3 15 -9 12 -12z m2310 8
c-3 -5 -12 -10 -18 -10 -7 0 -6 4 3 10 19 12 23 12 15 0z m-2276 -62 c-1 -55
-5 -50 -11 15 -2 20 0 37 4 37 4 0 7 -24 7 -52z m2233 15 c-6 -65 -10 -70 -11
-15 0 28 3 52 7 52 4 0 6 -17 4 -37z m-378 -163 c-6 -6 -76 -10 -167 -11 -142
0 -176 -6 -147 -24 6 -3 10 -11 10 -18 0 -6 -7 -1 -16 11 -11 16 -24 22 -42
20 -23 -3 -27 -7 -26 -35 1 -23 -3 -33 -12 -33 -21 0 -28 27 -16 56 l12 24
-340 0 -340 0 12 -24 c12 -28 5 -56 -14 -56 -8 0 -13 13 -13 33 0 27 -4 32
-27 35 -18 2 -31 -4 -42 -20 -9 -12 -16 -17 -16 -11 0 7 5 15 10 18 29 18 -5
24 -147 24 -91 1 -161 5 -167 11 -7 7 240 10 744 10 504 0 751 -3 744 -10z
m-1636 -7 c-15 -2 -37 -16 -48 -30 -18 -24 -19 -28 -6 -48 17 -26 12 -35 -21
-35 -27 0 -44 34 -33 65 9 26 67 55 105 53 30 -1 30 -1 3 -5z m143 -32 c31
-31 39 -46 39 -75 0 -71 -83 -116 -130 -70 -24 23 2 40 33 20 20 -14 29 -15
51 -5 32 15 42 49 26 90 -15 35 -36 48 -82 50 -28 2 -29 2 -8 7 l25 5 -25 8
c-25 7 -25 7 4 8 20 1 39 -10 67 -38z m1569 31 l-25 -5 25 -8 c22 -6 20 -7
-12 -8 -42 -1 -74 -26 -84 -66 -8 -33 -1 -50 30 -71 24 -15 28 -15 52 1 32 20
59 5 34 -19 -47 -46 -130 -1 -130 70 0 48 62 115 106 113 28 -2 28 -2 4 -7z
m139 -10 c39 -19 52 -46 40 -79 -5 -15 -17 -23 -32 -23 -33 0 -38 9 -21 35 13
20 12 24 -6 48 -11 14 -33 28 -48 30 -27 4 -27 4 3 5 17 1 45 -6 64 -16z
m-1820 -29 c-11 -13 -11 -17 -1 -20 6 -3 12 -11 12 -19 0 -8 -6 -11 -15 -8
-18 7 -20 35 -3 52 18 18 23 15 7 -5z m1741 -24 c0 -11 -7 -19 -15 -19 -18 0
-20 17 -2 23 9 3 8 8 -3 23 -14 18 -14 18 3 5 9 -7 17 -22 17 -32z m-1645 -10
c9 -17 14 -36 12 -42 -2 -7 -14 7 -26 31 -12 23 -17 42 -11 42 5 0 17 -14 25
-31z m1544 -11 c-12 -24 -24 -38 -26 -31 -5 15 24 73 37 73 6 0 1 -19 -11 -42z
m-1258 15 c13 -16 12 -17 -3 -4 -10 7 -18 15 -18 17 0 8 8 3 21 -13z m979 13
c0 -2 -8 -10 -17 -17 -16 -13 -17 -12 -4 4 13 16 21 21 21 13z m-1090 -16 c0
-5 -4 -10 -10 -10 -5 0 -10 5 -10 10 0 6 5 10 10 10 6 0 10 -4 10 -10z m860
-15 c47 -8 101 -19 119 -25 19 -5 37 -6 40 -2 4 5 15 12 25 15 16 6 17 5 6 -8
-16 -19 -22 -14 80 -53 63 -23 87 -28 97 -20 10 8 12 7 7 -6 -10 -26 26 -33
46 -8 22 27 34 17 14 -13 -14 -22 -13 -24 21 -45 38 -24 39 -24 -9 -78 l-20
-23 44 -39 c49 -41 49 -40 -27 -60 -44 -11 -45 -13 -55 -97 -3 -21 -8 -19 -87
33 -47 30 -94 57 -107 60 -13 3 -42 -5 -74 -21 -28 -14 -57 -24 -63 -22 -7 2
13 16 43 32 75 38 111 65 104 77 -4 5 -19 8 -35 6 -15 -3 -26 -1 -23 3 6 11
-47 26 -156 45 -180 32 -506 19 -648 -27 -18 -6 -30 -14 -28 -18 3 -4 -8 -6
-23 -3 -16 2 -31 -1 -35 -6 -7 -12 29 -39 104 -77 30 -16 50 -30 43 -32 -6 -2
-35 8 -63 22 -32 16 -61 24 -74 21 -13 -3 -60 -30 -107 -60 -79 -52 -84 -54
-87 -33 -10 84 -11 86 -55 97 -76 20 -76 19 -27 60 l44 39 -20 23 c-48 54 -47
54 -9 78 34 21 35 23 21 45 -20 30 -8 40 14 13 20 -25 56 -18 46 8 -5 13 -3
14 7 6 10 -8 34 -3 97 20 102 39 96 34 80 53 -11 13 -10 14 6 8 10 -3 21 -10
24 -14 3 -5 30 -2 60 6 48 12 96 20 235 39 60 9 322 -4 405 -19z m177 3 c-3
-8 -6 -5 -6 6 -1 11 2 17 5 13 3 -3 4 -12 1 -19z m163 12 c0 -5 -4 -10 -10
-10 -5 0 -10 5 -10 10 0 6 5 10 10 10 6 0 10 -4 10 -10z m-792 -299 c3 -10 0
-12 -11 -8 -9 3 -21 -1 -27 -9 -10 -11 -9 -20 5 -41 l18 -28 -21 19 c-24 21
-30 71 -9 79 20 9 40 3 45 -12z m430 7 c16 -16 15 -40 -1 -61 -11 -16 -12 -14
-12 15 0 29 -3 33 -25 30 -21 -4 -22 -2 -11 12 16 19 33 20 49 4z m-233 -29
c-4 -13 0 -28 12 -42 18 -21 18 -21 -6 -4 -26 17 -51 8 -51 -19 0 -7 -4 -15
-9 -18 -17 -11 -6 29 12 42 11 9 16 21 12 33 -5 14 -3 17 9 13 9 -3 16 -1 16
5 0 6 3 11 6 11 3 0 2 -9 -1 -21z m-328 -11 c-3 -8 -6 -5 -6 6 -1 11 2 17 5
13 3 -3 4 -12 1 -19z m630 0 c-3 -8 -6 -5 -6 6 -1 11 2 17 5 13 3 -3 4 -12 1
-19z m-600 -10 c-3 -8 -6 -5 -6 6 -1 11 2 17 5 13 3 -3 4 -12 1 -19z m570 0
c-3 -8 -6 -5 -6 6 -1 11 2 17 5 13 3 -3 4 -12 1 -19z m-642 -6 c-3 -3 -11 0
-18 7 -9 10 -8 11 6 5 10 -3 15 -9 12 -12z m235 6 c0 -6 -3 -8 -7 -5 -3 4 -12
2 -20 -4 -13 -11 -19 2 -6 14 11 11 33 8 33 -5z m278 -8 c4 -12 3 -13 -10 -3
-8 7 -18 10 -21 6 -4 -3 -7 -1 -7 6 0 17 32 10 38 -9z m208 5 c-11 -8 -25 -15
-30 -15 -6 1 0 7 14 15 32 19 40 18 16 0z m-623 -34 c10 -12 8 -13 -13 -6 -45
13 -58 25 -27 23 16 -2 34 -9 40 -17z m567 10 c-8 -5 -26 -12 -40 -16 -21 -7
-23 -6 -13 6 6 8 24 15 40 17 20 1 24 -1 13 -7z m-1279 -28 c13 -16 12 -17 -3
-4 -17 13 -22 21 -14 21 2 0 10 -8 17 -17z m1020 -6 c-10 -9 -11 -8 -5 6 3 10
9 15 12 12 3 -3 0 -11 -7 -18z m-234 -3 c-3 -3 -12 -4 -19 -1 -8 3 -5 6 6 6
11 1 17 -2 13 -5z m390 0 c-3 -3 -12 -4 -19 -1 -8 3 -5 6 6 6 11 1 17 -2 13
-5z m-350 -10 c-3 -3 -12 -4 -19 -1 -8 3 -5 6 6 6 11 1 17 -2 13 -5z m306 -1
c-7 -2 -19 -2 -25 0 -7 3 -2 5 12 5 14 0 19 -2 13 -5z m-225 -10 c-10 -2 -26
-2 -35 0 -10 3 -2 5 17 5 19 0 27 -2 18 -5z m160 0 c-10 -2 -26 -2 -35 0 -10
3 -2 5 17 5 19 0 27 -2 18 -5z m-363 -13 c3 -5 1 -10 -4 -10 -6 0 -11 5 -11
10 0 6 2 10 4 10 3 0 8 -4 11 -10z m545 0 c0 -5 -5 -10 -11 -10 -5 0 -7 5 -4
10 3 6 8 10 11 10 2 0 4 -4 4 -10z m-1165 -50 c21 -22 37 -40 34 -40 -3 0 -23
18 -44 40 -21 22 -37 40 -34 40 3 0 23 -18 44 -40z m625 2 c-12 -4 -50 17 -50
28 0 5 13 1 30 -8 16 -9 25 -18 20 -20z m65 0 c-6 -7 -35 18 -35 31 0 5 9 2
20 -8 11 -10 18 -20 15 -23z m415 13 c-7 -8 -16 -15 -21 -15 -5 0 -1 9 8 20 9
11 19 17 21 15 3 -3 -1 -11 -8 -20z m76 -1 c-11 -8 -27 -14 -35 -14 -9 0 -3 8
14 19 34 21 50 17 21 -5z m634 23 c0 -2 -19 -21 -42 -42 l-43 -40 40 43 c36
39 45 47 45 39z m-954 -22 c18 -13 18 -14 -4 -8 -12 3 -25 9 -28 14 -8 14 10
11 32 -6z m80 6 c-3 -5 -16 -11 -28 -14 -22 -6 -22 -5 -4 8 22 17 40 20 32 6z
m-191 -49 c-3 -3 -11 0 -18 7 -9 10 -8 11 6 5 10 -3 15 -9 12 -12z m145 -7 c0
-14 -4 -25 -10 -25 -5 0 -10 11 -10 25 0 14 5 25 10 25 6 0 10 -11 10 -25z
m145 15 c-3 -5 -12 -10 -18 -10 -7 0 -6 4 3 10 19 12 23 12 15 0z m-243 -29
c-3 -23 1 -30 17 -36 11 -3 31 -1 43 5 22 11 22 10 4 -4 -25 -20 -50 -20 -70
0 -16 16 -21 46 -9 57 14 14 19 6 15 -22z m196 -1 c7 -43 -46 -64 -84 -34 -18
14 -18 15 4 4 12 -6 32 -8 43 -5 17 6 20 13 17 36 -3 18 -1 28 6 26 6 -2 13
-14 14 -27z m-897 -37 c13 -16 12 -17 -3 -4 -10 7 -18 15 -18 17 0 8 8 3 21
-13z m799 -38 c0 -14 -4 -25 -10 -25 -5 0 -10 11 -10 25 0 14 5 25 10 25 6 0
10 -11 10 -25z m-62 -242 c-10 -2 -28 -2 -40 0 -13 2 -5 4 17 4 22 1 32 -1 23
-4z m150 0 c-10 -2 -28 -2 -40 0 -13 2 -5 4 17 4 22 1 32 -1 23 -4z"/>
<path d="M1232 1921 c4 -13 18 -16 19 -4 0 4 -5 9 -11 12 -7 2 -11 -2 -8 -8z"/>
<path d="M960 1311 l0 -131 35 0 36 0 -3 128 -3 127 -32 3 -33 3 0 -130z"/>
<path d="M2427 1433 c-4 -3 -7 -62 -7 -130 l0 -123 35 0 35 0 0 130 0 130 -28
0 c-16 0 -32 -3 -35 -7z"/>
<path d="M1495 934 c-16 -2 -66 -9 -110 -15 -127 -16 -262 -56 -370 -108 -123
-60 -144 -75 -128 -92 10 -10 16 -9 30 1 15 12 16 12 6 0 -17 -19 -16 -43 1
-37 8 3 13 -1 12 -11 0 -9 4 -16 11 -15 7 2 10 -3 8 -10 -2 -6 9 -27 24 -45
l29 -33 50 25 c149 76 325 109 567 109 236 0 408 -34 557 -109 l50 -25 29 33
c15 18 26 39 24 45 -2 7 1 12 8 10 7 -1 11 6 11 15 -1 10 4 14 12 11 17 -6 18
18 2 37 -11 12 -10 12 5 0 14 -10 20 -11 30 -1 17 17 -5 32 -128 92 -164 79
-340 117 -565 124 -74 2 -148 2 -165 -1z m93 -75 c-21 -12 -24 -39 -5 -40 10
0 10 -2 0 -6 -21 -8 -15 -31 10 -36 19 -4 18 -4 -5 -6 -27 -1 -28 1 -28 49 0
45 2 50 23 50 20 -1 20 -2 5 -11z m120 -39 c-2 -47 -17 -71 -19 -32 -1 16 -2
16 -6 0 -9 -36 -26 -18 -19 20 3 20 6 43 6 50 0 6 9 12 20 12 18 0 20 -6 18
-50z m-210 -12 c3 -42 1 -48 -16 -48 -23 0 -32 18 -32 67 0 30 3 34 23 31 19
-3 22 -10 25 -50z m322 35 c0 -15 -2 -16 -10 -3 -16 26 -24 0 -8 -28 8 -15 13
-33 11 -39 -7 -20 -43 -16 -43 5 0 14 2 15 10 2 17 -28 24 1 6 30 -19 33 -14
50 15 50 11 0 19 -7 19 -17z m-439 -5 c1 -7 3 -31 4 -53 4 -39 3 -39 -10 -15
l-14 25 -1 -25 c0 -19 -3 -22 -9 -10 -8 13 -15 62 -12 83 2 12 41 8 42 -5z
m515 -13 c-8 -31 11 -33 25 -2 8 18 9 17 4 -12 -3 -18 -5 -42 -5 -52 0 -11 -5
-19 -11 -19 -6 0 -8 9 -4 20 8 25 -10 26 -25 3 -8 -14 -9 -9 -4 22 7 50 12 65
20 65 3 0 3 -11 0 -25z m-626 -41 c24 -56 24 -55 5 -48 -8 4 -15 1 -15 -6 0
-6 -4 -8 -10 -5 -10 6 -15 105 -5 105 2 0 13 -21 25 -46z m757 -19 c-9 -38
-14 -45 -31 -43 -16 2 -20 9 -18 31 2 16 7 39 12 53 8 20 13 23 29 15 16 -9
17 -15 8 -56z m-852 -9 c15 -44 12 -56 -14 -56 -19 0 -47 72 -36 91 13 20 37
3 50 -35z m965 19 c0 -26 -13 -45 -30 -45 -10 0 -21 -7 -24 -16 -4 -9 -9 -15
-11 -12 -3 2 2 25 11 50 12 37 19 45 35 41 10 -3 19 -11 19 -18z"/>
<path d="M1680 841 c0 -12 5 -21 10 -21 6 0 10 6 10 14 0 8 -4 18 -10 21 -5 3
-10 -3 -10 -14z"/>
<path d="M1460 835 c0 -8 5 -15 10 -15 6 0 10 7 10 15 0 8 -4 15 -10 15 -5 0
-10 -7 -10 -15z"/>
<path d="M1470 784 c0 -8 5 -12 10 -9 6 3 10 10 10 16 0 5 -4 9 -10 9 -5 0
-10 -7 -10 -16z"/>
<path d="M1350 820 c0 -11 5 -20 10 -20 6 0 10 9 10 20 0 11 -4 20 -10 20 -5
0 -10 -9 -10 -20z"/>
<path d="M1995 779 c-6 -28 -1 -48 10 -37 3 2 8 19 11 36 8 42 -12 43 -21 1z"/>
<path d="M1137 783 c-7 -11 10 -40 18 -31 4 4 3 14 -3 24 -5 9 -12 12 -15 7z"/>
<path d="M1150 725 c0 -8 5 -15 10 -15 6 0 10 7 10 15 0 8 -4 15 -10 15 -5 0
-10 -7 -10 -15z"/>
<path d="M2105 769 c-4 -6 -5 -13 -2 -16 7 -7 27 6 27 18 0 12 -17 12 -25 -2z"/>
<path d="M886 611 l-28 -29 39 -6 c55 -10 63 -18 71 -69 l7 -47 45 31 c25 16
67 41 93 55 l48 25 -25 20 -26 20 -53 -30 -54 -31 -32 45 c-18 25 -38 45 -45
45 -7 0 -25 -13 -40 -29z"/>
<path d="M2269 595 l-32 -45 -52 30 c-51 29 -51 29 -79 10 l-29 -18 49 -26
c27 -14 69 -39 94 -55 l45 -31 8 50 c8 46 11 50 45 60 20 5 43 10 51 10 10 0
5 11 -14 30 -16 17 -34 30 -41 30 -7 0 -27 -20 -45 -45z"/>
</g>
</svg>
