<?xml version="1.0" standalone="no"?>
<!DOCTYPE svg PUBLIC "-//W3C//DTD SVG 20010904//EN"
 "http://www.w3.org/TR/2001/REC-SVG-20010904/DTD/svg10.dtd">
<svg version="1.0" xmlns="http://www.w3.org/2000/svg"
 width="443.000000pt" height="75.000000pt" viewBox="0 0 443.000000 75.000000"
 preserveAspectRatio="xMidYMid meet">

<g transform="translate(0.000000,75.000000) scale(0.100000,-0.100000)"
fill="#000000" stroke="none">
<path d="M0 375 l0 -375 2215 0 2215 0 0 375 0 375 -2215 0 -2215 0 0 -375z
m420 136 c0 -11 -31 -24 -39 -16 -3 3 1 10 9 15 19 12 30 12 30 1z m1323 -56
c1 -5 -6 -11 -15 -13 -11 -2 -18 3 -18 13 0 17 30 18 33 0z m-773 -10 c0 -11
-11 -15 -40 -15 -33 0 -40 -3 -40 -20 0 -17 7 -20 41 -20 52 0 48 -24 -4 -28
-29 -3 -37 -7 -37 -23 0 -16 7 -19 40 -19 29 0 40 -4 40 -15 0 -12 -13 -15
-55 -15 l-55 0 0 85 0 85 55 0 c42 0 55 -3 55 -15z m150 -70 c0 -69 -3 -85
-15 -85 -8 0 -15 5 -15 10 0 6 -8 5 -19 -2 -15 -9 -25 -9 -45 0 -22 10 -26 18
-26 56 0 51 23 72 66 62 21 -6 24 -3 24 19 0 16 6 25 15 25 12 0 15 -16 15
-85z m296 48 c9 -21 20 -49 26 -63 9 -24 11 -22 35 38 18 45 30 62 44 62 17 0
19 -8 19 -85 0 -68 -3 -85 -14 -85 -11 0 -16 15 -18 53 l-3 52 -20 -53 c-12
-33 -24 -52 -33 -50 -8 2 -24 28 -38 58 l-23 55 -1 -57 c0 -45 -3 -58 -15 -58
-12 0 -15 16 -15 85 0 78 2 85 20 85 13 0 25 -12 36 -37z m762 25 c15 -15 16
-58 0 -58 -6 0 -4 -7 5 -18 23 -25 21 -59 -2 -72 -11 -5 -40 -10 -65 -10 l-46
0 0 85 0 85 48 0 c26 0 53 -5 60 -12z m312 -13 c0 -22 3 -24 28 -19 37 8 62
-17 62 -61 0 -53 -47 -84 -78 -53 -9 9 -12 9 -12 0 0 -7 -7 -12 -15 -12 -12 0
-15 16 -15 85 0 69 3 85 15 85 9 0 15 -9 15 -25z m520 -7 c0 -25 3 -29 12 -20
17 17 44 15 62 -4 22 -21 22 -114 1 -114 -11 0 -15 11 -15 38 0 46 -12 65 -36
60 -15 -2 -20 -14 -22 -51 -2 -33 -7 -47 -18 -47 -11 0 -14 18 -14 85 0 69 3
85 15 85 10 0 15 -10 15 -32z m554 26 c20 -8 21 -42 1 -64 -14 -15 -14 -19 1
-31 13 -11 18 -11 21 -1 3 6 11 12 19 12 10 0 11 -6 5 -23 -5 -13 -5 -30 0
-38 7 -13 0 -16 -43 -17 -28 0 -60 3 -70 9 -22 12 -24 52 -3 69 11 9 12 17 4
31 -20 39 19 71 65 53z m248 -11 c37 -33 10 -93 -44 -93 -24 0 -28 -4 -28 -30
0 -23 -4 -30 -20 -30 -18 0 -20 7 -20 85 l0 85 47 0 c29 0 53 -6 65 -17z m308
-68 c0 -69 -3 -85 -15 -85 -12 0 -15 16 -15 85 0 69 3 85 15 85 12 0 15 -16
15 -85z m-2310 60 c0 -8 7 -15 15 -15 8 0 15 -4 15 -9 0 -5 -7 -11 -15 -15 -9
-3 -15 -19 -15 -41 0 -24 4 -35 15 -35 8 0 15 -7 15 -15 0 -18 -31 -20 -48 -3
-7 7 -12 31 -12 54 0 24 -5 45 -12 48 -10 5 -10 7 0 12 6 3 12 12 12 20 0 8 7
14 15 14 8 0 15 -7 15 -15z m-1626 -30 c-16 -13 -17 -16 -4 -25 10 -6 11 -10
3 -10 -20 0 -15 -28 5 -33 13 -4 11 -5 -5 -6 -21 -1 -23 4 -23 44 0 40 3 45
22 45 21 0 21 0 2 -15z m74 -33 c3 -39 1 -42 -22 -42 -23 0 -26 4 -26 38 0 43
7 54 30 50 10 -2 16 -17 18 -46z m32 -32 c5 0 11 19 13 43 l4 42 1 -47 c2 -42
-1 -48 -18 -48 -17 0 -20 6 -18 48 l1 47 4 -42 c2 -24 8 -43 13 -43z m124 37
c12 52 26 49 25 -4 -1 -37 -3 -42 -8 -23 l-7 25 -8 -22 c-9 -27 -26 -30 -27
-5 0 14 -2 14 -9 -3 -6 -15 -9 -7 -9 30 l0 50 18 -40 18 -40 7 32z m86 38 c0
-3 -6 -21 -14 -40 -13 -30 -13 -34 2 -38 12 -3 10 -5 -5 -6 -26 -1 -28 7 -11
44 10 22 9 28 -3 36 -11 7 -9 9 9 9 12 0 22 -2 22 -5z m27 -62 c-2 -16 -4 -5
-4 22 0 28 2 40 4 28 2 -13 2 -35 0 -50z m55 54 c-6 -6 -12 -28 -14 -47 -3
-32 -4 -31 -8 13 -5 41 -3 47 14 47 14 0 16 -3 8 -13z m58 -32 c0 -38 -3 -45
-20 -45 -17 0 -20 7 -20 45 0 38 3 45 20 45 17 0 20 -7 20 -45z m550 -6 c0
-47 2 -50 23 -47 19 3 22 10 25 51 2 33 7 47 18 47 11 0 14 -15 14 -63 l0 -64
-50 -1 c-59 -1 -70 12 -70 82 0 39 3 46 20 46 17 0 20 -7 20 -51z m490 40 c0
-6 -14 -29 -31 -50 l-31 -39 31 0 c21 0 31 -5 31 -15 0 -12 -13 -15 -55 -15
-30 0 -55 4 -55 8 0 4 13 23 30 42 36 43 37 50 5 50 -16 0 -25 6 -25 15 0 11
12 15 50 15 30 0 50 -4 50 -11z m60 -54 c0 -51 -3 -65 -15 -65 -12 0 -15 14
-15 65 0 51 3 65 15 65 12 0 15 -14 15 -65z m222 48 c22 -20 23 -70 1 -95 -36
-40 -103 -10 -103 45 0 58 60 88 102 50z m356 5 c7 -7 12 -36 12 -64 l0 -53
-46 2 c-76 3 -90 59 -20 73 35 6 45 17 26 29 -5 3 -18 0 -29 -7 -25 -15 -39
-4 -21 17 15 18 61 20 78 3z m122 -4 c0 -8 -9 -14 -20 -14 -17 0 -20 -7 -20
-50 0 -43 -3 -50 -20 -50 -18 0 -20 7 -20 64 l0 63 40 0 c27 0 40 -4 40 -13z
m270 -4 c34 -34 26 -50 -25 -50 -46 0 -54 -7 -34 -27 8 -8 18 -8 35 -1 29 13
42 4 24 -17 -16 -20 -64 -19 -84 1 -9 8 -16 29 -16 46 0 61 59 89 100 48z
m120 4 c0 -8 -9 -14 -20 -14 -17 0 -20 -7 -20 -50 0 -43 -3 -50 -20 -50 -18 0
-20 7 -20 64 l0 63 40 0 c27 0 40 -4 40 -13z m110 1 c18 -21 4 -32 -21 -17
-20 13 -39 9 -39 -9 0 -5 9 -9 19 -9 10 0 29 -9 42 -19 23 -19 24 -19 5 -40
-23 -26 -68 -27 -92 -3 -17 16 -17 17 0 20 9 2 23 -2 31 -8 14 -12 35 -6 35 9
0 5 -15 12 -32 17 -35 10 -47 36 -28 59 16 20 64 19 80 0z m290 -5 c40 -40 11
-110 -45 -110 -32 0 -65 33 -65 65 0 32 33 65 65 65 14 0 34 -9 45 -20z m155
-3 c33 -47 4 -112 -46 -105 -26 4 -29 2 -29 -24 0 -21 -5 -28 -20 -28 -18 0
-20 7 -20 88 l0 89 50 1 c40 1 52 -3 65 -21z m563 11 c7 -7 12 -35 12 -64 l0
-51 -43 -1 c-53 -1 -70 9 -65 39 2 18 12 26 41 33 36 9 50 25 25 27 -18 2 -21
1 -40 -6 -12 -5 -18 -2 -18 8 0 26 66 37 88 15z m122 0 c0 -4 -11 -13 -25 -18
-22 -8 -25 -16 -25 -55 0 -33 -4 -45 -15 -45 -12 0 -15 14 -15 64 l0 63 40 0
c22 0 40 -4 40 -9z m180 -8 c40 -40 11 -110 -45 -110 -32 0 -65 33 -65 65 0
32 33 65 65 65 14 0 34 -9 45 -20z m120 4 c0 -8 -9 -14 -20 -14 -17 0 -20 -7
-20 -50 0 -38 -4 -50 -15 -50 -12 0 -15 14 -15 64 l0 64 35 0 c23 0 35 -5 35
-14z"/>
<path d="M1034 376 c-11 -29 0 -51 26 -51 21 0 25 5 25 30 0 24 -5 31 -23 33
-13 2 -24 -3 -28 -12z"/>
<path d="M2100 409 c0 -16 5 -20 27 -17 17 2 29 10 31 21 3 13 -3 17 -27 17
-25 0 -31 -4 -31 -21z"/>
<path d="M2100 345 c0 -21 5 -25 29 -25 17 0 33 5 36 10 10 16 -15 40 -41 40
-19 0 -24 -5 -24 -25z"/>
<path d="M2494 376 c-11 -29 0 -51 26 -51 21 0 25 5 25 30 0 24 -5 31 -23 33
-13 2 -24 -3 -28 -12z"/>
<path d="M3522 418 c5 -15 28 -18 29 -3 0 6 -7 12 -17 13 -10 3 -15 -1 -12
-10z"/>
<path d="M3514 346 c-8 -22 -1 -28 26 -24 l22 3 -21 19 c-19 17 -21 17 -27 2z"/>
<path d="M3740 405 c0 -23 4 -26 28 -23 19 2 27 9 27 23 0 14 -8 21 -27 23
-24 3 -28 0 -28 -23z"/>
<path d="M233 375 c0 -22 2 -30 4 -17 2 12 2 30 0 40 -3 9 -5 -1 -4 -23z"/>
<path d="M610 375 c0 -19 5 -35 10 -35 6 0 10 16 10 35 0 19 -4 35 -10 35 -5
0 -10 -16 -10 -35z"/>
<path d="M1894 376 c-11 -29 0 -51 26 -51 21 0 25 5 25 30 0 24 -5 31 -23 33
-13 2 -24 -3 -28 -12z"/>
<path d="M2260 340 c-11 -6 -12 -12 -4 -20 13 -13 44 -2 44 16 0 16 -18 18
-40 4z"/>
<path d="M2650 390 c-21 -13 -7 -22 27 -18 27 3 27 4 7 15 -12 7 -26 8 -34 3z"/>
<path d="M3160 355 c0 -30 3 -35 24 -35 26 0 40 23 31 51 -4 12 -16 19 -31 19
-21 0 -24 -5 -24 -35z"/>
<path d="M3323 392 c-12 -7 -16 -25 -14 -54 1 -12 9 -18 25 -18 24 0 35 20 28
52 -4 19 -24 29 -39 20z"/>
<path d="M3890 340 c-12 -7 -12 -12 -3 -21 9 -9 16 -9 28 1 29 24 9 42 -25 20z"/>
<path d="M4180 355 c0 -30 3 -35 24 -35 26 0 40 23 31 51 -4 12 -16 19 -31 19
-21 0 -24 -5 -24 -35z"/>
</g>
</svg>
