<?xml version="1.0" standalone="no"?>
<!DOCTYPE svg PUBLIC "-//W3C//DTD SVG 20010904//EN"
 "http://www.w3.org/TR/2001/REC-SVG-20010904/DTD/svg10.dtd">
<svg version="1.0" xmlns="http://www.w3.org/2000/svg"
 width="443.000000pt" height="75.000000pt" viewBox="0 0 443.000000 75.000000"
 preserveAspectRatio="xMidYMid meet">

<g transform="translate(0.000000,75.000000) scale(0.100000,-0.100000)"
fill="#000000" stroke="none">
<path d="M300 674 c-141 -51 -223 -172 -216 -321 5 -118 74 -220 185 -272 45
-21 71 -26 131 -26 127 0 227 62 287 178 24 45 28 63 27 137 0 100 -24 160
-89 225 -82 82 -222 116 -325 79z m120 -163 c0 -11 -31 -24 -39 -16 -3 3 1 10
9 15 19 12 30 12 30 1z m-236 -106 c-16 -13 -17 -16 -4 -25 10 -6 11 -10 3
-10 -20 0 -15 -28 5 -33 13 -4 11 -5 -5 -6 -21 -1 -23 4 -23 44 0 40 3 45 22
45 21 0 21 0 2 -15z m74 -33 c3 -39 1 -42 -22 -42 -23 0 -26 4 -26 38 0 43 7
54 30 50 10 -2 16 -17 18 -46z m32 -32 c5 0 11 19 13 43 l4 42 1 -47 c2 -42
-1 -48 -18 -48 -17 0 -20 6 -18 48 l1 47 4 -42 c2 -24 8 -43 13 -43z m124 37
c12 52 26 49 25 -4 -1 -37 -3 -42 -8 -23 l-7 25 -8 -22 c-9 -27 -26 -30 -27
-5 0 14 -2 14 -9 -3 -6 -15 -9 -7 -9 30 l0 50 18 -40 18 -40 7 32z m86 38 c0
-3 -6 -21 -14 -40 -13 -30 -13 -34 2 -38 12 -3 10 -5 -5 -6 -26 -1 -28 7 -11
44 10 22 9 28 -3 36 -11 7 -9 9 9 9 12 0 22 -2 22 -5z m27 -62 c-2 -16 -4 -5
-4 22 0 28 2 40 4 28 2 -13 2 -35 0 -50z m55 54 c-6 -6 -12 -28 -14 -47 -3
-32 -4 -31 -8 13 -5 41 -3 47 14 47 14 0 16 -3 8 -13z m58 -32 c0 -38 -3 -45
-20 -45 -17 0 -20 7 -20 45 0 38 3 45 20 45 17 0 20 -7 20 -45z"/>
<path d="M233 375 c0 -22 2 -30 4 -17 2 12 2 30 0 40 -3 9 -5 -1 -4 -23z"/>
<path d="M610 375 c0 -19 5 -35 10 -35 6 0 10 16 10 35 0 19 -4 35 -10 35 -5
0 -10 -16 -10 -35z"/>
<path d="M1717 463 c-12 -11 -8 -23 8 -23 8 0 15 7 15 15 0 16 -12 20 -23 8z"/>
<path d="M860 375 l0 -85 55 0 c42 0 55 3 55 15 0 11 -11 15 -40 15 -33 0 -40
3 -40 20 0 16 7 20 35 20 24 0 35 5 35 15 0 10 -11 15 -35 15 -28 0 -35 4 -35
20 0 17 7 20 40 20 29 0 40 4 40 15 0 12 -13 15 -55 15 l-55 0 0 -85z"/>
<path d="M1090 428 c0 -25 -3 -29 -12 -20 -31 31 -78 0 -78 -53 0 -53 47 -84
78 -53 9 9 12 9 12 0 0 -7 7 -12 15 -12 12 0 15 16 15 85 0 69 -3 85 -15 85
-10 0 -15 -10 -15 -32z m0 -73 c0 -29 -31 -50 -48 -33 -29 29 -4 85 30 67 10
-5 18 -21 18 -34z"/>
<path d="M1360 375 c0 -68 3 -85 15 -85 10 0 15 15 17 58 l3 57 21 -54 c11
-30 26 -57 33 -59 6 -2 22 20 36 50 l24 53 0 -52 c1 -40 5 -53 16 -53 12 0 15
16 15 85 0 76 -2 85 -19 85 -14 0 -25 -16 -41 -60 -12 -33 -24 -60 -27 -60 -2
0 -15 27 -30 60 -18 43 -31 60 -44 60 -17 0 -19 -9 -19 -85z"/>
<path d="M2070 375 l0 -85 49 0 c73 0 103 39 64 82 -9 11 -11 18 -5 18 16 0
15 43 0 58 -7 7 -34 12 -60 12 l-48 0 0 -85z m88 38 c-2 -11 -14 -19 -31 -21
-22 -3 -27 1 -27 17 0 17 6 21 31 21 24 0 30 -4 27 -17z m2 -58 c17 -20 4 -35
-31 -35 -24 0 -29 4 -29 25 0 20 5 25 24 25 13 0 29 -7 36 -15z"/>
<path d="M2460 375 c0 -69 3 -85 15 -85 8 0 15 5 15 12 0 9 3 9 12 0 31 -31
78 0 78 53 0 53 -47 84 -78 53 -9 -9 -12 -5 -12 20 0 22 -5 32 -15 32 -12 0
-15 -16 -15 -85z m90 -19 c0 -32 -19 -47 -42 -35 -23 12 -24 55 -1 68 23 12
43 -4 43 -33z"/>
<path d="M2980 375 c0 -67 3 -85 14 -85 11 0 16 14 18 48 3 43 5 47 28 47 23
0 25 -4 28 -47 2 -34 7 -48 18 -48 20 0 19 93 -2 114 -18 19 -45 21 -62 4 -9
-9 -12 -5 -12 20 0 22 -5 32 -15 32 -12 0 -15 -16 -15 -85z"/>
<path d="M3506 444 c-19 -18 -19 -20 -6 -44 7 -13 6 -21 -5 -30 -20 -17 -19
-57 3 -69 23 -12 125 -10 113 2 -6 6 -7 23 -4 38 5 29 -11 42 -20 17 -3 -10
-8 -10 -21 1 -15 12 -15 16 -1 31 40 44 -17 97 -59 54z m54 -23 c0 -13 -26
-32 -33 -24 -14 13 -6 33 13 33 11 0 20 -4 20 -9z m-13 -80 c10 -15 9 -20 -1
-24 -20 -8 -40 9 -33 27 8 21 20 20 34 -3z"/>
<path d="M3700 375 c0 -69 3 -85 15 -85 10 0 15 10 15 30 0 27 3 30 33 30 58
0 88 58 49 93 -12 11 -36 17 -65 17 l-47 0 0 -85z m95 30 c0 -15 -8 -21 -32
-23 -30 -3 -33 -1 -33 23 0 24 3 26 33 23 24 -2 32 -8 32 -23z"/>
<path d="M4090 375 c0 -69 3 -85 15 -85 12 0 15 16 15 85 0 69 -3 85 -15 85
-12 0 -15 -16 -15 -85z"/>
<path d="M1780 436 c0 -8 -6 -17 -12 -20 -10 -5 -10 -7 0 -12 7 -3 12 -24 12
-48 0 -45 13 -66 42 -66 22 0 24 18 3 26 -9 4 -15 19 -15 40 0 22 6 37 15 40
8 4 15 10 15 15 0 5 -7 9 -15 9 -8 0 -15 7 -15 15 0 8 -7 15 -15 15 -8 0 -15
-6 -15 -14z"/>
<path d="M1150 383 c0 -21 3 -48 6 -61 8 -26 48 -39 69 -22 10 9 15 9 15 1 0
-6 7 -11 15 -11 12 0 15 14 15 65 0 51 -3 65 -15 65 -11 0 -15 -12 -15 -45 0
-33 -5 -47 -18 -54 -27 -15 -42 5 -42 56 0 32 -4 43 -15 43 -11 0 -15 -11 -15
-37z"/>
<path d="M1580 405 c0 -10 10 -15 31 -15 l30 0 -30 -37 c-44 -53 -41 -63 19
-63 38 0 50 4 50 15 0 10 -10 15 -31 15 l-31 0 31 39 c17 21 31 44 31 50 0 7
-20 11 -50 11 -38 0 -50 -4 -50 -15z"/>
<path d="M1710 355 c0 -51 3 -65 15 -65 12 0 15 14 15 65 0 51 -3 65 -15 65
-12 0 -15 -14 -15 -65z"/>
<path d="M1882 404 c-30 -21 -30 -77 0 -98 47 -34 98 -7 98 51 0 54 -52 80
-98 47z m56 -16 c30 -30 -1 -94 -33 -68 -25 20 -13 80 15 80 3 0 11 -5 18 -12z"/>
<path d="M2240 405 c-17 -21 -7 -29 19 -15 21 11 41 6 41 -10 0 -4 -17 -12
-37 -17 -70 -16 -52 -73 23 -71 l44 1 0 51 c0 29 -5 57 -12 64 -17 17 -63 15
-78 -3z m60 -70 c0 -21 -28 -31 -43 -16 -9 9 -8 14 3 21 22 14 40 12 40 -5z"/>
<path d="M2360 354 c0 -50 3 -64 15 -64 11 0 15 11 15 39 0 37 19 71 41 71 5
0 9 4 9 9 0 4 -18 8 -40 8 l-40 0 0 -63z"/>
<path d="M2627 402 c-22 -25 -21 -75 1 -95 23 -21 66 -22 82 -2 17 21 4 32
-20 17 -22 -14 -50 -6 -50 14 0 10 13 14 45 14 51 0 59 16 25 50 -25 25 -62
26 -83 2z m63 -17 c11 -13 8 -15 -19 -15 -31 0 -42 14 -18 23 20 9 24 8 37 -8z"/>
<path d="M2750 354 c0 -50 3 -64 15 -64 11 0 15 11 15 39 0 37 19 71 41 71 5
0 9 4 9 9 0 4 -18 8 -40 8 l-40 0 0 -63z"/>
<path d="M2860 405 c-19 -23 -7 -49 28 -59 17 -5 32 -12 32 -17 0 -15 -20 -20
-41 -9 -26 14 -36 6 -19 -15 16 -19 64 -20 80 0 19 23 7 49 -28 59 -17 5 -32
12 -32 17 0 16 20 19 39 7 25 -15 39 -4 21 17 -16 19 -64 20 -80 0z"/>
<path d="M3146 405 c-31 -31 -27 -84 8 -107 36 -25 96 11 96 57 0 52 -69 85
-104 50z m69 -35 c7 -22 -2 -47 -20 -54 -17 -6 -45 19 -45 39 0 20 29 45 45
39 8 -3 17 -14 20 -24z"/>
<path d="M3270 330 c0 -73 3 -90 15 -90 10 0 15 10 15 30 0 27 3 30 24 24 51
-12 87 36 66 90 -11 30 -53 44 -75 26 -10 -9 -15 -9 -15 -1 0 6 -7 11 -15 11
-12 0 -15 -17 -15 -90z m90 50 c22 -41 -14 -84 -45 -54 -18 18 -19 28 -5 55
14 25 36 24 50 -1z"/>
<path d="M3873 413 c-14 -5 -18 -33 -5 -33 4 0 13 5 19 11 13 13 43 5 43 -10
0 -6 -16 -13 -36 -17 -71 -13 -56 -68 20 -70 l46 -2 0 54 c0 42 -4 55 -19 64
-21 10 -47 12 -68 3z m57 -77 c0 -18 -30 -30 -43 -17 -5 5 -6 14 -3 20 10 16
46 13 46 -3z"/>
<path d="M3990 354 c0 -50 3 -64 15 -64 11 0 15 12 15 45 0 39 4 47 25 57 36
16 31 25 -15 25 l-40 0 0 -63z"/>
<path d="M4166 405 c-31 -31 -27 -84 8 -107 36 -25 96 11 96 57 0 52 -69 85
-104 50z m69 -35 c7 -22 -2 -47 -20 -54 -17 -6 -45 19 -45 39 0 20 29 45 45
39 8 -3 17 -14 20 -24z"/>
<path d="M4300 354 c0 -50 3 -64 15 -64 11 0 15 12 15 49 0 41 4 51 20 56 32
10 23 23 -15 23 l-35 0 0 -64z"/>
</g>
</svg>
